<svg width="17" height="15" viewBox="0 0 17 15" fill="none" xmlns="http://www.w3.org/2000/svg">
<path d="M1.92743 7.31384C1.58721 6.96564 1.31766 6.55116 1.13448 6.09455C0.951293 5.63794 0.858145 5.14834 0.860462 4.65427C0.860462 3.655 1.24575 2.69667 1.93156 1.99008C2.61737 1.2835 3.54754 0.88654 4.51742 0.88654C5.87695 0.88654 7.06439 1.64895 7.69253 2.7837H8.65625C8.97558 2.20662 9.43763 1.72704 9.99537 1.39379C10.5531 1.06053 11.1866 0.88551 11.8313 0.88654C12.8012 0.88654 13.7314 1.2835 14.4172 1.99008C15.103 2.69667 15.4883 3.655 15.4883 4.65427C15.4883 5.6915 15.0581 6.64895 14.4213 7.31384L8.17439 13.7411L1.92743 7.31384ZM15.0237 7.94327C15.8411 7.09221 16.3488 5.93973 16.3488 4.65427C16.3488 3.41988 15.8728 2.23606 15.0257 1.36321C14.1785 0.490373 13.0294 1.60035e-05 11.8313 1.60035e-05C10.3255 1.60035e-05 8.99183 0.753561 8.17439 1.92377C7.75715 1.3267 7.20775 0.840722 6.57176 0.506157C5.93577 0.171593 5.23152 -0.00191871 4.51742 1.60035e-05C3.31933 1.60035e-05 2.1703 0.490373 1.32312 1.36321C0.475942 2.23606 0 3.41988 0 4.65427C0 5.93973 0.507672 7.09221 1.32511 7.94327L8.17439 15L15.0237 7.94327Z" fill="#CF4B05"/>
</svg>
