<svg width="61" height="37" viewBox="0 0 61 37" fill="none" xmlns="http://www.w3.org/2000/svg">
<path fill-rule="evenodd" clip-rule="evenodd" d="M50.9005 4.43491C52.7602 5.71686 54.9083 8.22681 56.4739 11.0129C57.2536 12.4005 57.865 13.815 58.222 15.1283C58.5824 16.4542 58.6619 17.5971 58.468 18.4837C58.0509 20.3912 56.8607 21.7907 55.3417 22.6292C53.7932 23.4841 51.9347 23.7355 50.2977 23.3345C49.497 23.1384 48.8592 22.8082 48.3577 22.3328C47.8566 21.8577 47.4321 21.1815 47.1436 20.2021C46.5527 18.1966 46.5656 15.0356 47.582 10.2086C47.7202 9.55215 47.3002 8.90799 46.6438 8.76978C45.9874 8.63157 45.3432 9.05164 45.205 9.70804C44.1638 14.6528 44.0496 18.296 44.8135 20.8886C45.2023 22.2082 45.8256 23.2795 46.6865 24.0957C47.5472 24.9115 48.5858 25.4162 49.7198 25.694C51.5556 26.1436 53.5473 25.9936 55.3405 25.3029L57.2147 29.3141C57.4987 29.9218 58.2215 30.1843 58.8293 29.9003C59.437 29.6164 59.6995 28.8935 59.4155 28.2858L57.4797 24.1428C59.0925 22.9694 60.3527 21.2363 60.8411 19.0027C61.1489 17.5951 60.9839 16.028 60.5661 14.4911C60.1449 12.9417 59.4445 11.3407 58.5916 9.82288C56.8993 6.81134 54.5111 3.96166 52.2457 2.41193L52.2191 2.39372L52.1915 2.37695C46.738 -0.943039 40.0611 -0.678139 36.4602 2.50432C34.7836 3.98609 33.8404 5.37325 33.2667 6.90089C32.7805 8.19544 32.5761 9.5663 32.3607 11.0107C32.3343 11.1882 32.3076 11.3668 32.2803 11.5466C32.112 12.3188 31.9145 12.7451 31.6496 13.0757C31.3656 13.4302 30.9229 13.7773 30.0757 14.2569C29.1337 14.7901 28.0843 15.5403 27.4843 16.5653C27.1708 17.1009 26.9717 17.7262 26.9942 18.4231C27.0167 19.1177 27.2564 19.7941 27.6776 20.4395C27.813 20.6471 27.9616 20.8858 28.1233 21.1457C28.6575 22.0041 29.3347 23.0923 30.1543 24.044C31.2548 25.3218 32.7398 26.5243 34.8015 26.9111C36.4148 27.2138 37.8685 26.9458 38.9834 26.5753C38.5864 27.3871 38.0191 28.2405 37.1902 29.2257C36.1714 30.4364 34.3849 31.6841 32.7515 32.665C31.9528 33.1446 31.2228 33.5417 30.6929 33.8186C30.4283 33.9569 30.2145 34.0647 30.0681 34.1374C29.9949 34.1737 29.9387 34.2012 29.9014 34.2193L29.86 34.2393L29.8505 34.2439L29.8486 34.2447C29.2428 34.5327 28.9851 35.2573 29.2731 35.8631C29.561 36.4689 30.2856 36.7266 30.8915 36.4387L30.3701 35.3417C30.8915 36.4387 30.8913 36.4388 30.8915 36.4387L30.8975 36.4358L30.9115 36.4291L30.9619 36.4047C31.0054 36.3836 31.0681 36.353 31.1481 36.3133C31.308 36.2339 31.5369 36.1184 31.8179 35.9716C32.3793 35.6782 33.1527 35.2576 34.002 34.7475C35.6646 33.7491 37.7529 32.3298 39.0489 30.7897C40.2697 29.3388 41.0757 28.0317 41.5898 26.6583C42.103 25.2876 42.2993 23.9195 42.385 22.3934C42.4226 21.7236 41.9102 21.1502 41.2404 21.1126C40.5707 21.075 39.9973 21.5874 39.9597 22.2572C39.9339 22.7153 39.8982 23.141 39.8479 23.5433C39.8426 23.5461 39.8373 23.5489 39.8319 23.5517C39.5691 23.6911 39.2356 23.8679 38.8176 24.0438C37.8757 24.4402 36.6173 24.7803 35.2495 24.5236C33.9229 24.2748 32.8894 23.4974 31.9949 22.4588C31.3103 21.6638 30.7794 20.8117 30.2624 19.982C30.0792 19.688 29.8977 19.3967 29.7118 19.1118C29.4862 18.7662 29.4276 18.5152 29.4221 18.3446C29.4167 18.1764 29.4599 17.9988 29.5807 17.7925C29.8492 17.3337 30.4363 16.844 31.2723 16.3708C32.2031 15.844 32.9692 15.3138 33.5455 14.5944C34.137 13.856 34.4493 13.0195 34.6631 12.0206L34.6706 11.9853L34.6761 11.9496C34.706 11.7532 34.7346 11.5633 34.7622 11.3794C34.9858 9.8916 35.151 8.79267 35.5407 7.75498C35.9549 6.6522 36.6438 5.58391 38.0689 4.32448C40.6661 2.02899 46.1119 1.53448 50.9005 4.43491Z" fill="#CF4B05"/>
<path d="M37.3112 13.112C37.3112 13.9872 38.0207 14.6966 38.8958 14.6966C39.771 14.6966 40.4805 13.9872 40.4805 13.112C40.4805 12.2368 39.771 11.5273 38.8958 11.5273C38.0207 11.5273 37.3112 12.2368 37.3112 13.112Z" fill="#CF4B05"/>
<path fill-rule="evenodd" clip-rule="evenodd" d="M10.0995 4.43491C8.23976 5.71686 6.09175 8.22681 4.5261 11.0129C3.74637 12.4005 3.13499 13.815 2.778 15.1283C2.41759 16.4542 2.33808 17.5971 2.53196 18.4837C2.94908 20.3912 4.13928 21.7907 5.65829 22.6292C7.20677 23.4841 9.06534 23.7355 10.7023 23.3345C11.503 23.1384 12.1408 22.8082 12.6423 22.3328C13.1434 21.8577 13.5679 21.1815 13.8564 20.2021C14.4473 18.1966 14.4344 15.0356 13.418 10.2086C13.2798 9.55215 13.6998 8.90799 14.3562 8.76978C15.0126 8.63157 15.6568 9.05164 15.795 9.70804C16.8362 14.6528 16.9504 18.296 16.1865 20.8886C15.7977 22.2082 15.1744 23.2795 14.3135 24.0957C13.4528 24.9115 12.4142 25.4162 11.2802 25.694C9.44441 26.1436 7.45271 25.9936 5.65945 25.3029L3.78528 29.3141C3.50132 29.9218 2.77847 30.1843 2.17074 29.9003C1.56302 29.6164 1.30055 28.8935 1.5845 28.2858L3.52027 24.1428C1.90751 22.9694 0.647326 21.2363 0.158885 19.0027C-0.148925 17.5951 0.0161437 16.028 0.433903 14.4911C0.855083 12.9417 1.55546 11.3407 2.40841 9.82288C4.10074 6.81134 6.48886 3.96166 8.75431 2.41193L8.78093 2.39372L8.80849 2.37695C14.262 -0.943039 20.9389 -0.678139 24.5398 2.50432C26.2164 3.98609 27.1596 5.37325 27.7333 6.90089C28.2195 8.19544 28.4239 9.5663 28.6393 11.0107C28.6657 11.1882 28.6924 11.3668 28.7197 11.5466C28.888 12.3188 29.0855 12.7451 29.3504 13.0757C29.6344 13.4302 30.0771 13.7773 30.9243 14.2569C31.8663 14.7901 32.9157 15.5403 33.5157 16.5653C33.8292 17.1009 34.0283 17.7262 34.0058 18.4231C33.9833 19.1177 33.7436 19.7941 33.3224 20.4395C33.187 20.6471 33.0384 20.8858 32.8767 21.1457C32.3425 22.0041 31.6653 23.0923 30.8457 24.044C29.7452 25.3218 28.2602 26.5243 26.1985 26.9111C24.5852 27.2138 23.1315 26.9458 22.0166 26.5753C22.4136 27.3871 22.9809 28.2405 23.8098 29.2257C24.8286 30.4364 26.6151 31.6841 28.2485 32.665C29.0472 33.1446 29.7772 33.5417 30.3071 33.8186C30.5717 33.9569 30.7855 34.0647 30.9319 34.1374C31.0051 34.1737 31.0613 34.2012 31.0986 34.2193L31.14 34.2393L31.1495 34.2439L31.1514 34.2447C31.7572 34.5327 32.0149 35.2573 31.7269 35.8631C31.439 36.4689 30.7144 36.7266 30.1085 36.4387L30.6299 35.3417C30.1085 36.4387 30.1087 36.4388 30.1085 36.4387L30.1025 36.4358L30.0885 36.4291L30.0381 36.4047C29.9946 36.3836 29.9319 36.353 29.8519 36.3133C29.692 36.2339 29.4631 36.1184 29.1821 35.9716C28.6207 35.6782 27.8473 35.2576 26.998 34.7475C25.3354 33.7491 23.2471 32.3298 21.9511 30.7897C20.7303 29.3388 19.9243 28.0317 19.4102 26.6583C18.897 25.2876 18.7007 23.9195 18.615 22.3934C18.5774 21.7236 19.0898 21.1502 19.7596 21.1126C20.4293 21.075 21.0027 21.5874 21.0403 22.2572C21.0661 22.7153 21.1018 23.141 21.1521 23.5433C21.1574 23.5461 21.1627 23.5489 21.1681 23.5517C21.4309 23.6911 21.7644 23.8679 22.1824 24.0438C23.1243 24.4402 24.3827 24.7803 25.7505 24.5236C27.0771 24.2748 28.1106 23.4974 29.0051 22.4588C29.6897 21.6638 30.2206 20.8117 30.7376 19.982C30.9208 19.688 31.1023 19.3967 31.2882 19.1118C31.5138 18.7662 31.5724 18.5152 31.5779 18.3446C31.5833 18.1764 31.5401 17.9988 31.4193 17.7925C31.1508 17.3337 30.5637 16.844 29.7277 16.3708C28.7969 15.844 28.0308 15.3138 27.4545 14.5944C26.863 13.856 26.5507 13.0195 26.3369 12.0206L26.3294 11.9853L26.3239 11.9496C26.294 11.7532 26.2654 11.5633 26.2378 11.3794C26.0142 9.8916 25.849 8.79267 25.4593 7.75498C25.0451 6.6522 24.3562 5.58391 22.9311 4.32448C20.3339 2.02899 14.8881 1.53448 10.0995 4.43491Z" fill="#CF4B05"/>
<path d="M23.6888 13.112C23.6888 13.9872 22.9793 14.6966 22.1042 14.6966C21.229 14.6966 20.5195 13.9872 20.5195 13.112C20.5195 12.2368 21.229 11.5273 22.1042 11.5273C22.9793 11.5273 23.6888 12.2368 23.6888 13.112Z" fill="#CF4B05"/>
</svg>
